<?xml version="1.0" encoding="utf-8"?>
<!-- Generator: Adobe Illustrator 21.0.2, SVG Export Plug-In . SVG Version: 6.00 Build 0)  -->
<svg version="1.1" id="Layer_1" xmlns="http://www.w3.org/2000/svg" xmlns:xlink="http://www.w3.org/1999/xlink" x="0px" y="0px"
	 width="237.1px" height="73.3px" viewBox="0 0 237.1 73.3" enable-background="new 0 0 237.1 73.3" xml:space="preserve">
<polygon fill="#0A3254" points="139.5,44.8 140.4,39.5 136.8,39.5 134.6,53.3 138.2,53.3 139.1,47.7 144.2,47.7 143.3,53.3 
	146.9,53.3 149.1,39.5 145.5,39.5 144.7,44.8 "/>
<path fill="#0A3254" d="M159.6,48.8c0.5-3.2-1.1-5.2-4.3-5.2c-3.1,0-5.5,1.9-6,5c-0.5,3.2,1.5,5,4.6,5c2.1,0,4.4-1,5.3-3.2H156
	c-0.5,0.6-1,0.9-1.7,0.9c-1.4,0-2-0.7-1.8-2.1h7L159.6,48.8z M152.9,47.3c0.4-1,1.2-1.5,2.2-1.5c0.9,0,1.6,0.6,1.7,1.5H152.9z"/>
<path fill="#0A3254" d="M172.1,43.9h-3.3l-0.1,0.9c-0.6-0.8-1.6-1.2-2.7-1.2c-2.8,0-5.1,2.3-5.5,5c-0.4,2.7,1.2,5,3.9,5
	c1.1,0,2.3-0.4,3.1-1.4h0l-0.2,1h3.3L172.1,43.9z M166.4,46.5c1.4,0,2,1,1.8,2.1c-0.2,1.2-1.1,2.1-2.5,2.1c-1.4,0-2-0.9-1.8-2.1
	C164.1,47.5,165,46.5,166.4,46.5"/>
<polygon fill="#0A3254" points="178.6,38.1 175.3,38.1 172.8,53.3 176.2,53.3 "/>
<polygon fill="#0A3254" points="183.1,46.7 185,46.7 185.4,43.9 183.5,43.9 184,41.1 180.6,41.1 180.2,43.9 179.1,43.9 178.7,46.7 
	179.7,46.7 178.7,53.3 182,53.3 "/>
<path fill="#0A3254" d="M187.4,38.1L185,53.3h3.3l0.8-4.8c0.2-1.1,0.8-2.2,2.1-2.2c1.3,0,1.3,1.1,1.1,2.2l-0.8,4.8h3.3l0.9-5.8
	c0.4-2.4-0.5-4-2.9-4c-1.3,0-2.3,0.5-3.2,1.5h0l1.1-7H187.4z"/>
<path fill="#0A3254" d="M205.3,44.2c-0.6-0.4-1.3-0.5-2.1-0.5c-2.9,0-5.6,2.1-6.1,5.1c-0.4,2.8,1.5,4.9,4.3,4.9
	c0.8,0,1.6-0.2,2.4-0.5l0.4-2.8c-0.5,0.4-1.2,0.6-1.8,0.6c-1.4,0-2.2-1-2-2.3c0.2-1.3,1.4-2.3,2.7-2.3c0.6,0,1.2,0.3,1.6,0.7
	L205.3,44.2z"/>
<path fill="#0A3254" d="M217.7,43.9h-3.3l-0.1,0.9c-0.6-0.8-1.6-1.2-2.7-1.2c-2.8,0-5.1,2.3-5.5,5c-0.4,2.7,1.2,5,3.9,5
	c1.1,0,2.3-0.4,3.1-1.4h0l-0.2,1h3.3L217.7,43.9z M211.9,46.5c1.4,0,2,1,1.8,2.1c-0.2,1.2-1.1,2.1-2.5,2.1c-1.4,0-2-0.9-1.8-2.1
	C209.6,47.5,210.5,46.5,211.9,46.5"/>
<path fill="#0A3254" d="M223.2,43.9h-3.3l-1.5,9.4h3.3l0.6-3.8c0.3-1.6,0.9-2.8,2.8-2.8c0.5,0,0.9,0.1,1.4,0.3l0.5-3.2h-0.6
	c-1.3,0-2.5,0.5-3.3,1.7h0L223.2,43.9z"/>
<path fill="#0A3254" d="M237,48.8c0.5-3.2-1.1-5.2-4.3-5.2c-3.1,0-5.5,1.9-6,5c-0.5,3.2,1.5,5,4.6,5c2.1,0,4.4-1,5.3-3.2h-3.2
	c-0.5,0.6-1,0.9-1.7,0.9c-1.4,0-2-0.7-1.8-2.1h7L237,48.8z M230.3,47.3c0.4-1,1.2-1.5,2.2-1.5c0.9,0,1.6,0.6,1.7,1.5H230.3z"/>
<path fill="#0A3254" d="M37,12.4c3.9,0,6.4-2.7,6.4-6.1c0-3.5-2.5-6.1-6.4-6.1c-3.9,0-6.4,2.6-6.4,6.1C30.6,9.7,33.1,12.4,37,12.4
	L37,12.4z M42.7,53.8l0-36.6l-11.4,0l0,36.6L42.7,53.8z"/>
<path fill="#D9272E" d="M62.3,73.3H51.1V25.7h-4.7l0-8.3l4.7,0v-1.4c0-4.4,1.3-9.2,4.5-12.2c2.8-2.7,6.7-3.6,9.9-3.6
	c2.4,0,4.4,0.3,5.9,0.8L71,9.6C70,9.3,68.9,9,67.4,9c-3.7,0-5.2,2.9-5.2,6.4v1.8h7.2l0,8.3h-7.1V73.3z"/>
<polygon fill="#0A3254" points="0,53.8 26.1,53.8 26.1,43.6 12.2,43.6 12.2,0 0,0 "/>
<path fill="#0A3254" d="M90.4,45.5c-4.9-0.2-9.1-2.5-9.4-7l23.6,0.1c0.2-0.9,0.4-2.6,0.4-4.6c0-9.1-4.5-18.3-16.4-18.3
	c-12.7,0-18.5,10.3-18.5,19.6c0,11.4,7.1,18.2,19.5,18.3c2.4,0,32.9,0,32.9,0l1.4-8.2L90.4,45.5z M87.8,23.8c5.2,0,6.4,4.7,6.4,7.4
	l-13.5,0C81,28.2,83,23.8,87.8,23.8"/>
</svg>
